<svg xmlns="http://www.w3.org/2000/svg" viewBox="0 0 317.1 92.79"><defs><style>.cls-1{fill:#594539;}.cls-2{fill:#a68851;}.cls-3{fill:#e6c8a0;}.cls-4{fill:tan;}.cls-5{fill:#b4826e;}.cls-6{fill:#7dc86e;}.cls-7{fill:#8ce16e;}.cls-8{fill:#7db764;}.cls-9{fill:#dcdbde;}.cls-10{font-size:84.61px;fill:#42210b;font-family:BaskOldFace, Baskerville Old Face;}</style></defs><title>資產 1</title><g id="圖層_2" data-name="圖層 2"><g id="圖層_1-2" data-name="圖層 1"><path class="cls-1" d="M312.91,27.82c-5.29,6.81-12.44,10.11-16,7.37s-2.11-10.49,3.18-17.3,16-7.37,16-7.37S318.2,21,312.91,27.82Z"/><path class="cls-2" d="M313.36,28.18c5.39-6.94,3.38-17.33,3.29-17.77a.58.58,0,0,0-.6-.46,29.43,29.43,0,0,0-8.81,2.1c-2.57-6.74-9-11.11-9.32-11.3a.58.58,0,0,0-.75.09c-.3.33-7.33,8.24-6.23,17a25.39,25.39,0,0,0,3.63,10.61c-.46,3,.09,5.39,1.54,6.83l-1.8,2.31a.62.62,0,0,0,.13.83.59.59,0,0,0,.82-.1l1.8-2.31C301,38.36,308,35.06,313.36,28.18ZM292.1,17.66c-.9-7.14,4.24-14,5.61-15.65,1.47,1.08,6.41,5,8.48,10.5a17.58,17.58,0,0,0-6.53,5,26.07,26.07,0,0,0-4.74,9.22A25.36,25.36,0,0,1,292.1,17.66ZM297.78,35l5.16-6.64,5.82-1.13a.58.58,0,1,0-.22-1.14L304,27l5.09-6.55a.59.59,0,0,0-.11-.81.62.62,0,0,0-.83.08l-5.09,6.55-.24-4.58a.58.58,0,0,0-1.16.07l.32,5.9-5.16,6.64c-1.14-1.22-1.53-3.3-1.08-5.94a23.57,23.57,0,0,1,4.82-10.14,16.73,16.73,0,0,1,6.58-4.9,28.92,28.92,0,0,1,8.46-2.2c.33,2.15,1.26,10.63-3.16,16.32C307.69,33.6,301.17,36.9,297.78,35Z"/><path class="cls-3" d="M30.68,26.47H67a1.33,1.33,0,0,1,1.33,1.33V49.15a16,16,0,0,1-16,16H45.37a16,16,0,0,1-16-16V27.8A1.33,1.33,0,0,1,30.68,26.47Z"/><path class="cls-4" d="M68.32,27.8V49.15a16,16,0,0,1-16,16H46.69a16,16,0,0,0,15.89-16V26.47H67A1.33,1.33,0,0,1,68.32,27.8Z"/><path class="cls-5" d="M62.21,38.52a2.67,2.67,0,1,1-2.67-2.67A2.67,2.67,0,0,1,62.21,38.52ZM48.87,35.85a2.67,2.67,0,1,0,2.67,2.67A2.67,2.67,0,0,0,48.87,35.85Zm-10.68,0a2.67,2.67,0,1,0,2.67,2.67A2.67,2.67,0,0,0,38.19,35.85Z"/><path class="cls-5" d="M68.32,30.87v2h-39v-2Zm-39,15.35h39v-2h-39Z"/><path class="cls-6" d="M29.49,73.49c-6.72,0-12.56-3-15.48-7.41,2.93-4.4,8.76-7.41,15.48-7.41s12.56,3,15.48,7.41C42.05,70.48,36.22,73.49,29.49,73.49Z"/><path class="cls-7" d="M27,57.39c-4.75,4.75-11,6.75-16.19,5.71-1-5.18,1-11.43,5.71-16.19s11-6.75,16.19-5.71C33.74,46.38,31.74,52.63,27,57.39Z"/><path class="cls-8" d="M25.08,50.4,9,66.49a1,1,0,1,1-1.42-1.42L23.67,49a1,1,0,1,1,1.42,1.42Z"/><path class="cls-8" d="M34.42,67H6.74a1,1,0,0,1-.57-.17l-6.07-4,0,0C-.28,61.58.84,61,1.57,61.47l5.22,3.42A.93.93,0,0,0,7.3,65H34c.87,0,1.48,1.11.5,2Z"/><path class="cls-9" d="M51.73,8.37a1.41,1.41,0,0,1,.23.3,7.67,7.67,0,0,1-1,9.43L49.4,19.62a1,1,0,0,0-.29.71v3.58a.19.19,0,0,1-.05.13c-.87.92-2,.32-2-.54V22.17a7.4,7.4,0,0,1,2.18-5.26l.82-.82a1,1,0,0,0,.17-.22A5.61,5.61,0,0,0,49.51,9L47.39,6.86a1,1,0,1,1,1.42-1.42Zm3.38,2.73V16a1.09,1.09,0,0,1-.32.77l-1.5,1.5a7.41,7.41,0,0,0-2.17,5.69.21.21,0,0,0,.06.14c1.11,1.15,2.54-.16,1.66-1.3a1,1,0,0,1,.11-1.35l2-2a7.4,7.4,0,0,0,2.18-5.26V11.5A1.06,1.06,0,0,0,55.17,11,.21.21,0,0,0,55.11,11.1Z"/><text class="cls-10" transform="translate(61.89 70.52)">Tealife</text></g></g></svg>