<svg xmlns="http://www.w3.org/2000/svg" width="418" height="418" viewBox="0 0 418 418"><defs><style>.cls-1{fill:#bf726b;}.cls-2{fill:#e6c8a0;}.cls-3{fill:tan;}.cls-4{fill:#b4826e;}.cls-5{fill:#7dc86e;}.cls-6{fill:#8ce16e;}.cls-7{fill:#7db764;}.cls-8{fill:#dcdbde;}</style></defs><title>資產 23</title><g id="圖層_2" data-name="圖層 2"><g id="圖層_1-2" data-name="圖層 1"><circle class="cls-1" cx="209" cy="209" r="209"/><path class="cls-2" d="M169.31,126H340.86a6.31,6.31,0,0,1,6.31,6.31V233.18a75.68,75.68,0,0,1-75.68,75.68h-32.8A75.68,75.68,0,0,1,163,233.18V132.27A6.31,6.31,0,0,1,169.31,126Z"/><path class="cls-3" d="M347.17,132.27V233.18a75.68,75.68,0,0,1-75.68,75.68H244.95c41.48,0,75.1-33.88,75.1-75.68V126h20.81A6.31,6.31,0,0,1,347.17,132.27Z"/><path class="cls-4" d="M318,182.68a12.61,12.61,0,1,1-12.61-12.61A12.61,12.61,0,0,1,318,182.68Zm-63.07-12.61a12.61,12.61,0,1,0,12.61,12.61A12.61,12.61,0,0,0,254.92,170.06Zm-50.46,0a12.61,12.61,0,1,0,12.61,12.61A12.61,12.61,0,0,0,204.46,170.06Z"/><path class="cls-4" d="M347.17,146.15v9.46H163v-9.46ZM163,218.68H347.17v-9.46H163Z"/><path class="cls-5" d="M163.38,347.92c-31.77,0-59.33-14.2-73.16-35,13.83-20.81,41.39-35,73.16-35s59.33,14.2,73.16,35C222.71,333.72,195.15,347.92,163.38,347.92Z"/><path class="cls-6" d="M151.52,271.83c-22.46,22.46-52,31.92-76.48,27-4.94-24.49,4.52-54,27-76.48s52-31.92,76.48-27C183.44,219.83,174,249.36,151.52,271.83Z"/><path class="cls-7" d="M142.53,238.82l-76,76a4.73,4.73,0,0,1-6.69-6.69l76-76a4.73,4.73,0,1,1,6.69,6.69Z"/><path class="cls-7" d="M186.67,317.7H55.84a5,5,0,0,1-2.72-.81L24.42,298.1a.31.31,0,0,1-.13-.18c-1.59-6,3.68-8.8,7.11-6.56l24.68,16.15a4.4,4.4,0,0,0,2.41.72h126c4.1,0,7,5.22,2.36,9.38A.31.31,0,0,1,186.67,317.7Z"/><path class="cls-8" d="M268.14,40.19a6.64,6.64,0,0,1,1.08,1.4c9,15.87,6.33,33.33-4.88,44.55l-7.23,7.23a4.73,4.73,0,0,0-1.39,3.35v16.92a.91.91,0,0,1-.24.63c-4.13,4.36-9.22,1.5-9.22-2.54v-6.31a35,35,0,0,1,10.3-24.88l3.86-3.85a4.93,4.93,0,0,0,.8-1c6.61-11.6,4.62-24.36-3.58-32.56l-10-10a4.73,4.73,0,1,1,6.69-6.69Zm16,12.88v23a5.17,5.17,0,0,1-1.51,3.65l-7.1,7.1a35,35,0,0,0-10.25,26.87,1,1,0,0,0,.28.64c5.26,5.41,12-.75,7.84-6.13a4.88,4.88,0,0,1,.52-6.39l9.39-9.38a35,35,0,0,0,10.3-24.88V55c0-4-5.06-6.9-9.19-2.57A1,1,0,0,0,284.1,53.07Z"/></g></g></svg>