<svg xmlns="http://www.w3.org/2000/svg" viewBox="0 0 255.21 92.79"><defs><style>.cls-1{fill:#594539;}.cls-2{fill:#a68851;}.cls-3{font-size:84.61px;fill:#42210b;font-family:BaskOldFace, Baskerville Old Face;}</style></defs><title>資產 3</title><g id="圖層_2" data-name="圖層 2"><g id="圖層_1-2" data-name="圖層 1"><path class="cls-1" d="M251,27.82c-5.29,6.81-12.44,10.11-16,7.37s-2.11-10.49,3.18-17.3,16-7.37,16-7.37S256.31,21,251,27.82Z"/><path class="cls-2" d="M251.48,28.18c5.39-6.94,3.38-17.33,3.29-17.77a.58.58,0,0,0-.6-.46,29.43,29.43,0,0,0-8.81,2.1C242.8,5.31,236.33.94,236,.75a.58.58,0,0,0-.75.09c-.3.33-7.33,8.24-6.23,17a25.39,25.39,0,0,0,3.63,10.61c-.46,3,.09,5.39,1.54,6.83l-1.8,2.31a.62.62,0,0,0,.13.83.59.59,0,0,0,.82-.1l1.8-2.31C239.12,38.36,246.13,35.06,251.48,28.18ZM230.21,17.66c-.9-7.14,4.24-14,5.61-15.65,1.47,1.08,6.41,5,8.48,10.5a17.58,17.58,0,0,0-6.53,5A26.07,26.07,0,0,0,233,26.75,25.36,25.36,0,0,1,230.21,17.66ZM235.89,35,241,28.41l5.82-1.13a.58.58,0,1,0-.22-1.14l-4.52.88,5.09-6.55a.59.59,0,0,0-.11-.81.62.62,0,0,0-.83.08l-5.09,6.55-.24-4.58a.58.58,0,0,0-1.16.07l.32,5.9L235,34.32c-1.14-1.22-1.53-3.3-1.08-5.94a23.57,23.57,0,0,1,4.82-10.14,16.73,16.73,0,0,1,6.58-4.9,28.92,28.92,0,0,1,8.46-2.2c.33,2.15,1.26,10.63-3.16,16.32C245.8,33.6,239.28,36.9,235.89,35Z"/><text class="cls-3" transform="translate(0 70.52)">Tealife</text></g></g></svg>